<svg id="Layer_1" data-name="Layer 1" xmlns="http://www.w3.org/2000/svg" xmlns:xlink="http://www.w3.org/1999/xlink" viewBox="0 0 566.93 233.08"><defs><style>.cls-1{fill:none;}.cls-2{fill:#231f20;}.cls-3{fill:#fbb040;}.cls-4{clip-path:url(#clip-path);}.cls-5{fill:#fbd96c;}</style><clipPath id="clip-path"><path class="cls-1" d="M182.7,116.8a62.41,62.41,0,0,0-21-44.24S145,55.24,108,53.4H31.73v7.35s20.48-.66,20.48,12.6v97.4s.39,12.86-20.48,11.42v7.35h71.68s45.42.53,67.08-28.49C170.49,161,185.06,144.11,182.7,116.8ZM107.18,70.1c-2.46,8.76,4,19.3,4,19.3,4,9.75-4,13.49-4,13.49S96.75,106,96.06,92.94,107.18,70.1,107.18,70.1Zm13.88,93a7.81,7.81,0,0,1-7.81,7.81H94.42a7.81,7.81,0,0,1-7.81-7.81V113.26a7.81,7.81,0,0,1,7.81-7.81h18.83a7.81,7.81,0,0,1,7.81,7.81Z"/></clipPath></defs><title>Artboard 1 copy</title><path class="cls-2" d="M226.13,121V53.28h18.7q35.8,0,35.79,33,0,15.68-9.94,25.19T244.07,121Zm7.93-60.54v53.36h10.11q13.32,0,20.73-7.13t7.41-20.21q0-26-27.67-26Z"/><path class="cls-2" d="M317.64,97.1H291.86V91h25.78Z"/><path class="cls-2" d="M367.75,121H332.61V53.28h7.93v60.54h27.2Z"/><path class="cls-2" d="M384.84,121H377.1V72.64h7.75Z"/><path class="cls-2" d="M441.79,117.13q0,26.63-25.5,26.63a34.23,34.23,0,0,1-15.68-3.4v-7.74q8.17,4.53,15.58,4.53,17.85,0,17.85-19v-5.29h-.19q-5.52,9.26-16.62,9.26a18.15,18.15,0,0,1-14.52-6.45q-5.5-6.45-5.5-17.31,0-12.32,5.93-19.6t16.22-7.27q9.77,0,14.5,7.84H434V72.64h7.74Zm-7.74-18V92a13.84,13.84,0,0,0-3.9-9.87A12.83,12.83,0,0,0,420.45,78a13.45,13.45,0,0,0-11.24,5.22q-4.06,5.22-4.06,14.61,0,8.08,3.9,12.92a12.58,12.58,0,0,0,10.32,4.84A13.48,13.48,0,0,0,430,111,17.25,17.25,0,0,0,434,99.13Z"/><path class="cls-2" d="M497.61,121h-7.74V93.14Q489.86,78,478.63,78a12.25,12.25,0,0,0-9.54,4.37,16.27,16.27,0,0,0-3.87,11.22V121h-7.75V49.41h7.75V80.67h.19q5.57-9.16,15.87-9.16,16.34,0,16.34,19.69Z"/><path class="cls-2" d="M534.63,120.53a14.93,14.93,0,0,1-7.22,1.51q-12.7,0-12.7-14.17V79.25h-8.31V72.64h8.31V60.84l7.74-2.5V72.64h12.18v6.61H522.45V106.5q0,4.86,1.65,6.94t5.48,2.08a8.14,8.14,0,0,0,5.05-1.61Z"/><path class="cls-3" d="M381.52,31.88s-.33,4.47-7.41,11.41c0,0-7.33,7.73-3.23,16,3.75,7.56,10.65,6.94,10.65,6.94s10.55,0,10.55-12.17c0,0,0-9.65-8.46-10.27,0,0,6.51,3.42,3.61,10.65A6.36,6.36,0,0,1,379,57.69c-4.94-1.76-2.38-8.63-2.38-8.63a53.44,53.44,0,0,1,2.95-5.49A14.29,14.29,0,0,0,381.52,31.88Z"/><path class="cls-2" d="M244.1,189.5H226.3V155.92h17.05v3.56H230.23v11.17h12.13v3.54H230.23v11.76H244.1Z"/><path class="cls-2" d="M305.51,155.92,293.07,189.5h-4.33l-12.18-33.59h4.38l9.3,26.63a15.81,15.81,0,0,1,.68,3H291a14.59,14.59,0,0,1,.77-3l9.49-26.58Z"/><path class="cls-2" d="M358.11,189.5h-17.8V155.92h17.05v3.56H344.25v11.17h12.13v3.54H344.25v11.76h13.87Z"/><path class="cls-2" d="M421.63,189.5H416.8l-17.28-26.77a11.19,11.19,0,0,1-1.08-2.11h-.14a34.58,34.58,0,0,1,.19,4.61V189.5h-3.93V155.92h5.11l16.82,26.35q1.05,1.64,1.36,2.25h.09a35.53,35.53,0,0,1-.23-4.94V155.92h3.93Z"/><path class="cls-2" d="M480.27,159.48h-9.7v30h-3.93v-30H457v-3.56h23.3Z"/><path class="cls-2" d="M514,188.14v-4.64a9,9,0,0,0,1.91,1.26,15.5,15.5,0,0,0,2.34.95,18.82,18.82,0,0,0,2.47.6,13.78,13.78,0,0,0,2.3.21,9,9,0,0,0,5.42-1.35,5.05,5.05,0,0,0,1.2-6.24,6.75,6.75,0,0,0-1.65-1.84,16.32,16.32,0,0,0-2.5-1.59q-1.44-.76-3.1-1.61t-3.28-1.8a14.21,14.21,0,0,1-2.65-2,8.37,8.37,0,0,1-1.77-2.49,8.5,8.5,0,0,1,.36-7.26,8.64,8.64,0,0,1,2.65-2.8,12,12,0,0,1,3.74-1.64,17.09,17.09,0,0,1,4.27-.54q5,0,7.24,1.19V161a13.12,13.12,0,0,0-7.64-2.06,12.67,12.67,0,0,0-2.58.27,7.32,7.32,0,0,0-2.3.88,5.08,5.08,0,0,0-1.64,1.57,4.17,4.17,0,0,0-.63,2.34,4.82,4.82,0,0,0,.48,2.22,5.46,5.46,0,0,0,1.42,1.71,14.1,14.1,0,0,0,2.28,1.5q1.35.73,3.1,1.59t3.42,1.87a15.63,15.63,0,0,1,2.83,2.18,9.68,9.68,0,0,1,1.93,2.65,7.44,7.44,0,0,1,.72,3.33,8.44,8.44,0,0,1-1,4.2,8,8,0,0,1-2.62,2.8,11.44,11.44,0,0,1-3.81,1.56,20.84,20.84,0,0,1-4.54.48,18.91,18.91,0,0,1-2-.13q-1.17-.13-2.39-.37a19.9,19.9,0,0,1-2.31-.61A7.2,7.2,0,0,1,514,188.14Z"/><path class="cls-2" d="M182.7,116.8a62.41,62.41,0,0,0-21-44.24S145,55.24,108,53.4H31.73v7.35s20.48-.66,20.48,12.6v97.4s.39,12.86-20.48,11.42v7.35h71.68s45.42.53,67.08-28.49C170.49,161,185.06,144.11,182.7,116.8ZM107.18,70.1c-2.46,8.76,4,19.3,4,19.3,4,9.75-4,13.49-4,13.49S96.75,106,96.06,92.94,107.18,70.1,107.18,70.1Zm13.88,93a7.81,7.81,0,0,1-7.81,7.81H94.42a7.81,7.81,0,0,1-7.81-7.81V113.26a7.81,7.81,0,0,1,7.81-7.81h18.83a7.81,7.81,0,0,1,7.81,7.81Z"/><g class="cls-4"><path class="cls-5" d="M151.08,134.65c-4.6.13-3.41-4.13-4.88-7.52,3.94-2.45,6.24-6.27,10-1.7,1.26,1.53,3.63,3.23,3.47,5.37l-5.45-1.06,5.17,2.36v0C159.25,134,152.36,134.62,151.08,134.65Zm10.35-4.75h0l.73-5.64.6,5.52c2.09-.48,3-3.24,4.11-4.9,3.26-4.94-1.08-6-4.58-9.05-2.8,2.41-7.23,2.53-5.74,6.89C157,123.92,159.57,130.33,161.43,129.9Zm8.4-5.61c-1.06.74-6.49,5-5.56,6.67v0l5.62-.86-5.13,2.1c1,1.88,4,2,5.85,2.59,5.65,1.76,5.48-2.7,7.42-6.91C174.95,125.87,173.61,121.65,169.83,124.29Zm-6,9.56,0,0,2.9,4.89-3.86-4c-1.35,1.66-.38,4.41-.22,6.39.47,5.9,4.54,4.08,9.18,4.32.73-3.62,4.14-6.44.29-9C171,135.82,165,132.37,163.82,133.85Zm-2.41,9.41c.26-1.26,1.26-8.09-.56-8.67h0l-3.48,4.5,2.27-5.06c-2-.64-4.24,1.28-6,2.16-5.31,2.62-2.11,5.73-.62,10.12C156.61,145.63,160.49,147.77,161.41,143.25Zm2-11.55a1.56,1.56,0,0,0-2.09-.63,1.54,1.54,0,1,0,2.09.63Z"/><path class="cls-5" d="M90.16,126.44c-1-4.06-7.57-5.55-9.07-1.15a2.63,2.63,0,0,0,2.3,3.34c2.32-.09,3.47-1.68,3.89-3.85A3.67,3.67,0,0,1,89,127.84a5.63,5.63,0,0,1-5.75,5.55c-6-.13-9.63-5.93-10.09-11.37-.08-.89-1.48-.94-1.4,0,.48,5.69,3.9,11.51,9.85,12.69C86.54,135.64,91.36,131.53,90.16,126.44Z"/><path class="cls-5" d="M78.62,163.2c5.2-.18,8.64-7.89,3.63-10.81-1.62-.95-4.33,0-4.65,2-.46,2.86,1.21,4.66,3.75,5.7a4.58,4.58,0,0,1-4.16,1.34A7,7,0,0,1,71.82,153c1.63-7.27,9.61-10.32,16.39-9.55,1.1.13,1.51-1.58.39-1.7-7.07-.8-15,1.94-17.93,8.94C68.26,156.51,72.1,163.42,78.62,163.2Z"/><path class="cls-5" d="M54.65,190.86c6.18,3.87,14,1.57,19.05-3,.81-.73-.46-1.83-1.25-1.12-4.88,4.39-12.85,6.45-18.18,1.66a6.76,6.76,0,0,1-.47-9.59,4.41,4.41,0,0,1,4-1.28c-1.41,2.24-1.71,4.59.24,6.57,1.34,1.36,4,.62,4.76-1,2.29-5.09-4.72-9.22-8.89-6.45C48.69,180.1,49.53,187.66,54.65,190.86Z"/><path class="cls-5" d="M153.49,117.19c5.21-3.45,6.19-10.33,4.43-15.93-.28-.89-1.59-.29-1.32.58,1.69,5.36.46,12.32-5.17,14.77a5.79,5.79,0,0,1-7.64-3,3.78,3.78,0,0,1,.43-3.58c1.25,1.9,3,3,5.21,2.14,1.54-.56,1.91-2.91.89-4.08-3.15-3.6-8.86.4-8.19,4.64C143,118,149.17,120,153.49,117.19Z"/><path class="cls-5" d="M142.49,184.66c6.17,4.09,14.13,2,19.42-2.53.84-.71-.42-1.87-1.24-1.17-5.07,4.32-13.22,6.2-18.5,1.19a6.86,6.86,0,0,1-.22-9.74,4.48,4.48,0,0,1,4.11-1.19c-1.5,2.24-1.87,4.61.07,6.68,1.33,1.42,4.06.73,4.86-.92,2.47-5.1-4.54-9.48-8.85-6.79C136.73,173.57,137.38,181.27,142.49,184.66Z"/><path class="cls-5" d="M75.14,58.47q-1.39.4-2.79.69l-1,.15a.6.6,0,0,0-.25.09C54,62.49,36.05,54.68,20.5,47.49a.58.58,0,0,0-.5,1.05c5.27,2.44,10.66,4.94,16.18,7.08a.44.44,0,0,0,.34.45L39.4,57a.61.61,0,0,0,.2.17,70.59,70.59,0,0,0,45.18,8c.73-.12.65-1.28-.09-1.16a69.6,69.6,0,0,1-39.38-5.24,68.88,68.88,0,0,0,10.2,2.12,64.71,64.71,0,0,0,9.19.74c9.77.06,20.11-2.34,27.81-8.65a33.52,33.52,0,0,0,12.35-25.3A33.42,33.42,0,0,0,93.28,2C85.79-4.23,74.93-7.3,65.77-2.75c-8.48,4.21-13.44,14-10.9,23.29,2.45,9,11.12,16.25,20.77,14.32a14.3,14.3,0,0,0,10-8.22,10.93,10.93,0,0,0,1.17-6.49,11.29,11.29,0,0,0-7-9.3c-3.14-1.17-8.12-.39-9.43,3.17-1.14,3.08,0,6.84,3.34,7.8.54.15,1.25-1,.71-1.34A4,4,0,0,1,74.14,14a5.89,5.89,0,0,1,6.42-.37,10.09,10.09,0,0,1,4.52,11,12.18,12.18,0,0,1-.52,1.66c-3.26,6.68-13,8.86-19.65,4.71-7.29-4.56-10.4-14.6-5.8-22.15C64.2.49,74.24-1.4,82.71,2.88c9.8,5,16.5,15.47,16.23,26.54A30,30,0,0,1,83.19,55.19l-.07,0A33.7,33.7,0,0,1,75.14,58.47Zm2.78-46.86a5.83,5.83,0,0,0-4,1.06A5.62,5.62,0,0,0,71.71,19a4.75,4.75,0,0,1-.32-4.44,5.73,5.73,0,0,1,5.51-3A8.44,8.44,0,0,1,77.92,11.61Z"/><path class="cls-5" d="M31.76,82.64c-.37-.32-.86.28-.48.59,2.9,2.47,5.87,5,9,7.33a.3.3,0,0,0,.14.35L42,92a.41.41,0,0,0,.09.14,45.18,45.18,0,0,0,27,12.83c.48,0,.62-.71.14-.76A44.41,44.41,0,0,1,45.47,94.11"/><path class="cls-5" d="M142.05,80.38c-1.43-1.76-3.39-2.95-4.7-4.84a9.87,9.87,0,0,1-1.86-5.95,21.54,21.54,0,0,1,.45-2.93,11.17,11.17,0,0,0,.18-1.51,3.32,3.32,0,0,0,0-.57s-.13-.12-.11-.18c.1-.23.67.2.79.28a5,5,0,0,1,1.49,1.66,13.45,13.45,0,0,1,1.19,3c.11.4.2.8.28,1.21h0q.06.28.11.56h0c.14.8.25,1.61.35,2.42a16.07,16.07,0,0,0,0-2.45h0c0-.32-.06-.64-.09-1v0q0-.37-.08-.73a15.32,15.32,0,0,0-1.74-4.93.25.25,0,0,1,0-.17.26.26,0,0,1,.38-.17,8.63,8.63,0,0,1,3.31,3h0A7.32,7.32,0,0,1,143,70h0q0,.19,0,.37v.09h0a13.29,13.29,0,0,1,0,1.49h0a.09.09,0,0,1,0,0c-.07,1.47-.34,2.93-.54,4.39a10.68,10.68,0,0,0,0,3.7.26.26,0,0,1,0,.12A.26.26,0,0,1,142.05,80.38Z"/><path class="cls-5" d="M121,52.72a27.12,27.12,0,0,1,18.48,16.8c.41,1.11-.17,1.29-.58.18C136,62,128.52,56.63,120.6,54.51,119.46,54.21,119.87,52.42,121,52.72Z"/><path class="cls-5" d="M135.58,111c-1,1.75-1.45,3.77-2.66,5.45a8.87,8.87,0,0,1-4.46,3.39,19.36,19.36,0,0,1-2.62.51,10,10,0,0,0-1.33.3,3,3,0,0,0-.47.19s-.06.15-.12.15c-.22,0,0-.63,0-.76a4.45,4.45,0,0,1,.95-1.76,12.09,12.09,0,0,1,2.2-1.93q.46-.32.93-.61h0l.44-.26h0c.63-.36,1.28-.7,1.94-1a14.45,14.45,0,0,0-2.06.78h0l-.78.37h0l-.59.29a13.77,13.77,0,0,0-3.64,3,.23.23,0,0,1-.14.07.23.23,0,0,1-.26-.26,7.76,7.76,0,0,1,1.56-3.73h0a6.58,6.58,0,0,1,2.08-1.75h0l.3-.15.08,0h0a12,12,0,0,1,1.25-.47h0c1.26-.39,2.58-.61,3.88-.88a9.6,9.6,0,0,0,3.12-1.13l.1,0A.24.24,0,0,1,135.58,111Z"/><path class="cls-5" d="M118.63,137.27a24.38,24.38,0,0,1,8.55-20.75c.81-.69,1.14-.25.33.44-5.62,4.77-7.88,12.77-7.25,20.11C120.36,138.13,118.72,138.33,118.63,137.27Z"/><path class="cls-5" d="M76.78,172.75c1.65,1.2,2.81,2.9,4.58,4a8.87,8.87,0,0,0,5.43,1.37,19.36,19.36,0,0,0,2.61-.55,10,10,0,0,1,1.34-.24,3,3,0,0,1,.51,0s.11.11.16.09c.2-.1-.21-.59-.29-.7a4.45,4.45,0,0,0-1.56-1.25,12.09,12.09,0,0,0-2.78-.92c-.36-.08-.73-.14-1.1-.19h0l-.5-.07h0c-.72-.09-1.46-.14-2.19-.19a14.45,14.45,0,0,1,2.2-.09h0l.86,0h0l.66,0a13.77,13.77,0,0,1,4.51,1.31.23.23,0,0,0,.16,0,.23.23,0,0,0,.14-.35,7.76,7.76,0,0,0-2.9-2.82h0a6.58,6.58,0,0,0-2.6-.79h0l-.34,0h-.11a12,12,0,0,0-1.34.06h0c-1.32.13-2.61.45-3.92.71a9.6,9.6,0,0,1-3.32.19h-.1A.24.24,0,0,0,76.78,172.75Z"/><path class="cls-5" d="M102.66,190.24a24.38,24.38,0,0,0-16-15.74c-1-.32-1.15.22-.14.53,7,2.19,12.25,8.66,14.55,15.66C101.4,191.7,103,191.25,102.66,190.24Z"/><path class="cls-5" d="M133.95,174c-1,1.75-1.45,3.77-2.66,5.45a8.87,8.87,0,0,1-4.46,3.39,19.36,19.36,0,0,1-2.62.51,10,10,0,0,0-1.33.3,3,3,0,0,0-.47.19s-.06.15-.12.15c-.22,0,0-.63,0-.76a4.45,4.45,0,0,1,.95-1.76,12.09,12.09,0,0,1,2.2-1.93q.46-.32.93-.61h0l.44-.26h0c.63-.36,1.28-.7,1.94-1a14.45,14.45,0,0,0-2.06.78h0l-.78.37h0l-.59.29a13.77,13.77,0,0,0-3.64,3,.23.23,0,0,1-.14.07.23.23,0,0,1-.26-.26,7.76,7.76,0,0,1,1.56-3.73h0a6.58,6.58,0,0,1,2.08-1.75h0l.3-.15.08,0h0a12,12,0,0,1,1.25-.47h0c1.26-.39,2.58-.61,3.88-.88a9.6,9.6,0,0,0,3.12-1.13l.1,0A.24.24,0,0,1,133.95,174Z"/><path class="cls-5" d="M117,200.2a24.38,24.38,0,0,1,8.55-20.75c.81-.69,1.14-.25.33.44-5.62,4.77-7.88,12.77-7.25,20.11C118.72,201.06,117.08,201.26,117,200.2Z"/><path class="cls-5" d="M88.76,98.49c-1,1.75-1.45,3.77-2.66,5.45a8.87,8.87,0,0,1-4.46,3.39,19.36,19.36,0,0,1-2.62.51,10,10,0,0,0-1.33.3,3,3,0,0,0-.47.19s-.06.15-.12.15c-.22,0,0-.63,0-.76A4.45,4.45,0,0,1,78,106a12.09,12.09,0,0,1,2.2-1.93q.46-.32.93-.61h0l.44-.26h0c.63-.36,1.28-.7,1.94-1a14.45,14.45,0,0,0-2.06.78h0l-.78.37h0l-.59.29a13.77,13.77,0,0,0-3.64,3,.23.23,0,0,1-.14.07.23.23,0,0,1-.26-.26,7.76,7.76,0,0,1,1.56-3.73h0a6.58,6.58,0,0,1,2.08-1.75h0l.3-.15.08,0h0a12,12,0,0,1,1.25-.47h0c1.26-.39,2.58-.61,3.88-.88a9.6,9.6,0,0,0,3.12-1.13l.1,0A.24.24,0,0,1,88.76,98.49Z"/><path class="cls-5" d="M71.81,124.72A24.38,24.38,0,0,1,80.36,104c.81-.69,1.14-.25.33.44-5.62,4.77-7.88,12.77-7.25,20.11C73.53,125.58,71.9,125.78,71.81,124.72Z"/><path class="cls-5" d="M71.64,92.25c-2-.34-3.81-1.35-5.87-1.53A8.87,8.87,0,0,0,60.3,91.9a19.36,19.36,0,0,0-2.09,1.65,10,10,0,0,1-1.1.81,3,3,0,0,1-.45.24s-.15-.05-.19,0,.45.44.57.5a4.45,4.45,0,0,0,2,.43,12.09,12.09,0,0,0,2.9-.41c.36-.09.72-.2,1.07-.31h0l.48-.16h0c.69-.24,1.37-.52,2-.8a14.45,14.45,0,0,1-1.93,1.06h0l-.79.35h0l-.61.26a13.77,13.77,0,0,1-4.63.83.23.23,0,0,0-.14.06.23.23,0,0,0,0,.37A7.76,7.76,0,0,0,61.27,98h0A6.58,6.58,0,0,0,64,97.57h0l.31-.13.08,0h0a12,12,0,0,0,1.17-.65h0c1.12-.7,2.14-1.56,3.19-2.37a9.6,9.6,0,0,1,2.89-1.64l.09-.05A.24.24,0,0,0,71.64,92.25Z"/><path class="cls-5" d="M40.69,88.06a24.38,24.38,0,0,0,21.32,7c1.05-.17.93-.7-.12-.54-7.28,1.16-14.82-2.33-20-7.58C41.16,86.19,39.94,87.3,40.69,88.06Z"/><path class="cls-5" d="M74.56,168.07c-2.21.61-4.11,1.94-6.4,2.39a10,10,0,0,1-6.27-.7,21.82,21.82,0,0,1-2.54-1.61,11.32,11.32,0,0,0-1.32-.79,3.37,3.37,0,0,0-.53-.22s-.17.07-.21,0,.46-.54.58-.62a5,5,0,0,1,2.14-.7,13.63,13.63,0,0,1,3.3.13c.41.06.82.14,1.23.23h0l.56.13h0c.8.19,1.59.42,2.39.66a16.28,16.28,0,0,0-2.28-1h0l-.92-.3h0l-.71-.22a15.51,15.51,0,0,0-5.28-.4.26.26,0,0,1-.17-.05.26.26,0,0,1,0-.42,8.74,8.74,0,0,1,4.17-1.83h0a7.42,7.42,0,0,1,3.06.19h0l.36.11.09,0h0a13.46,13.46,0,0,1,1.39.59h0c1.34.66,2.58,1.5,3.85,2.29a10.82,10.82,0,0,0,3.43,1.51l.11,0A.27.27,0,0,1,74.56,168.07Z"/><path class="cls-5" d="M41.18,170.71a27.47,27.47,0,0,1,24.69-5.47c1.16.31,1,.89-.19.59-8-2.11-16.88,1-23.26,6.26C41.5,172.86,40.25,171.48,41.18,170.71Z"/><path class="cls-5" d="M178.75,107.16l-.09.05a9.53,9.53,0,0,1-2.81,1.73c-1.21.53-2.44,1-3.59,1.64h0a11.78,11.78,0,0,0-1.12.71h0l-.07,0-.26.2h0a6.52,6.52,0,0,0-1.66,2.12h0a7.69,7.69,0,0,0-.76,3.93.23.23,0,0,0,.31.2.23.23,0,0,0,.12-.1,13.67,13.67,0,0,1,2.93-3.63l.51-.41h0l.68-.52h0a14.32,14.32,0,0,1,1.84-1.17c-.57.45-1.13.92-1.67,1.4h0l-.37.34h0c-.27.25-.53.51-.78.78a12,12,0,0,0-1.74,2.32,4.41,4.41,0,0,0-.56,1.9c0,.13-.06.77.16.73.05,0,.05-.14.08-.17a3,3,0,0,1,.42-.28,10,10,0,0,1,1.23-.57,19.27,19.27,0,0,0,2.44-1,8.8,8.8,0,0,0,3.64-4.19c.83-1.88.81-3.92,1.47-5.83A.23.23,0,0,0,178.75,107.16Z"/><path class="cls-5" d="M110.62,51.85c-.48-.07-.55,1.26-.07,1.31,11.08,1.1,23.7,3.59,32.29,11a28.36,28.36,0,0,1,4.88,5.93c0,.1,0,0,0,0,3.73,5.25,4.35,13.95.94,20.08a19.41,19.41,0,0,1-18,9.52c-6.16-.39-11.16-4.76-11.26-11.11-.09-5.74,5-10.34,10.54-10.5,5.08-.14,9.83,4.3,9.46,9.11a7.93,7.93,0,0,1-.26,1.1A6.56,6.56,0,0,1,133,93a3.83,3.83,0,0,1-3.47-2.32,2.6,2.6,0,0,1,2.29-3.57c.41,0,.4-.9,0-1-2.21-.58-4.06,1.17-4.44,3.27-.44,2.43,2.1,4.5,4.24,4.89a7.34,7.34,0,0,0,7-2.91,7.1,7.1,0,0,0,1.48-4,9.29,9.29,0,0,0-2.87-7.88c-4.77-4.27-12-3.06-16.35,1.18a13.28,13.28,0,0,0-1.56,16.64c3.63,5.57,10.72,7.43,17,6.39a21.48,21.48,0,0,0,16.33-28.77C150.45,68.8,145.44,63.6,140,60.41a42.07,42.07,0,0,0-5.39-2.61,45.24,45.24,0,0,0-6.41-2.28A136.65,136.65,0,0,0,110.62,51.85Z"/><path class="cls-5" d="M185.06,88.32a29.27,29.27,0,0,0-3.5-2.67,27.22,27.22,0,0,0-3.32-2,18.92,18.92,0,0,0-12.34-1.82,13.9,13.9,0,0,0-9.87,19c1.64,3.76,5.15,7,9.45,7a8.59,8.59,0,0,0,8.48-6.71c.77-3.85-1.12-8.2-5.12-9.29A6,6,0,0,0,163.57,93a4.6,4.6,0,0,0-1.66,2.22,4.75,4.75,0,0,0,.88,4.81c1,1,3,1.67,4.15.58a2.41,2.41,0,0,0,.21-3.56c-.18-.16-.66.14-.52.37a1.68,1.68,0,0,1-1.13,2.5A2.48,2.48,0,0,1,163,98.87a4.24,4.24,0,0,1,.38-5,5.13,5.13,0,0,1,.51-.53c2.48-1.9,6.57-.88,8.28,1.93a7,7,0,0,1-2,9.42c-3.48,2.18-7.62,1-10-2.2A12.56,12.56,0,0,1,159,89.38a13,13,0,0,1,11.23-6.56s-.06,0,0,0a18.35,18.35,0,0,1,4.94.56c7,2.06,12.83,8,17.32,13.67.2.25.9-.26.69-.5A88.42,88.42,0,0,0,185.06,88.32Z"/><path class="cls-5" d="M116.39,171a42.1,42.1,0,0,0,6.16-.13,39.13,39.13,0,0,0,5.39-.59,30.05,30.05,0,0,0,16-9.06,18.86,18.86,0,0,0,4.35-15.56,19.06,19.06,0,0,0-9.51-13.11c-5-2.69-11.63-3.23-16.42.33a11.52,11.52,0,0,0-3.73,14.27c2.41,4.79,8.21,7.92,13.58,5.77a8.28,8.28,0,0,0,4.85-5.7,6.09,6.09,0,0,0,0-3.77A6.55,6.55,0,0,0,132,139c-1.94-.31-4.74.67-5.1,2.81a3.28,3.28,0,0,0,2.79,4c.33,0,.61-.69.27-.83a2.25,2.25,0,0,1-.87-3.64,3.54,3.54,0,0,1,3.67-.91,5.75,5.75,0,0,1,3.83,5.7,6.81,6.81,0,0,1-.12,1c-1.15,4.11-6.55,6.4-10.84,4.79-4.71-1.77-7.62-7.07-5.79-11.81,2-5.24,7.62-7.4,13-5.92,6.21,1.71,11.34,6.92,12.41,13.17,1,6.1-1.81,12.91-6.58,16.18h0a41.17,41.17,0,0,1-6.31,3.57c-8.35,3.62-23.31,1.7-30.86-1.1-.41-.15-1.56,3.15-1.12,3.23A90.76,90.76,0,0,0,116.39,171Z"/><path class="cls-5" d="M26,114.89c4.48-8.59,14.52-11.21,23.48-7.64,10.36,4.12,18.17,14,18.81,25,.62,10.65-6.14,21.36-14.51,26.44,0,0,.23-.11.11,0a71.4,71.4,0,0,1-11.55,4.91c-15.06,4.6-40.45-1.57-52.9-7.82-.68-.34-3.28,5.09-2.55,5.31,16.93,5.1,27.3,6.1,27.3,6.1a73.27,73.27,0,0,0,10.62,1,71.4,71.4,0,0,0,9.61.25c9.93-.69,22-5.64,29.33-12.44a32.67,32.67,0,0,0,10.24-26,31.79,31.79,0,0,0-13.86-23.73c-8.13-5.58-19.4-7.77-28.33-2.6-8.26,4.79-12.5,14.2-9.16,23.17"/><path class="cls-5" d="M40.32,88.59c1.25,1.59,3.2,2.65,4.67,4a43.55,43.55,0,0,0,4,3.87c4.53,3.44,12.22,5.37,17.86,5.29A17.58,17.58,0,0,0,80.75,95a17.88,17.88,0,0,0,3-15.25c-1.45-5.36-5.5-10.49-11.24-11.7-5.31-1.12-10.8,1.42-12.65,6.39-1.79,4.8-.46,10.44,4.66,13a8.15,8.15,0,0,0,7.3-.12,5.64,5.64,0,0,0,2.66-2.43,6.67,6.67,0,0,0-.22-6.74c-1.08-1.61-3.65-3-5.42-1.91a3.09,3.09,0,0,0-1,4.58c.2.26.9,0,.77-.34a2.11,2.11,0,0,1,2-2.95,3.61,3.61,0,0,1,3.11,2.08A5.39,5.39,0,0,1,72.2,86a6.33,6.33,0,0,1-.78.55,7.75,7.75,0,0,1-10.34-4c-1.9-4.54-.08-10,4.52-11.72C70.68,69,76,71.64,78.51,76.47c2.95,5.59,2.88,12.8-1.05,17.39-3.28,3.84-7.29,6.5-15.8,6.19a.39.39,0,0,1-.11,0A19.48,19.48,0,0,1,53.76,98C45.59,94.25,37.38,81.5,34.31,74.25c-.17-.4-3.28.88-3,1.24C36.67,84,40.32,88.59,40.32,88.59Z"/><path class="cls-5" d="M71.28,187.76c-1.77,2.59,1.44.88,1.44.88l.21-.25c4-4.05,11.28-5.83,17.3-4.07a16.61,16.61,0,0,1,11.6,13.34A9.9,9.9,0,0,1,94,209.06a9.58,9.58,0,0,1-11.14-7c-1-4.22,2.05-9,6.37-9.53a7.52,7.52,0,0,1,1,0,5.74,5.74,0,0,1,5.24,4.33,3.23,3.23,0,0,1-1.44,3.32,2.36,2.36,0,0,1-3.56-1.28c-.09-.34-.86-.17-.88.14-.12,2,1.75,3.19,3.67,3.14,2.22-.06,3.61-2.55,3.56-4.41a6.2,6.2,0,0,0-3.8-5.33,6.68,6.68,0,0,0-3.82-.53,8.55,8.55,0,0,0-6.46,3.8c-2.92,4.75-.58,10.6,3.94,13.48a12.48,12.48,0,0,0,15-1.64c4.28-4,4.66-10.29,2.64-15.35A18.9,18.9,0,0,0,92.4,181.62c-5.42-1.69-11.9-1.37-16.37,2.05C75.23,184.29,71.28,187.76,71.28,187.76Z"/><path class="cls-5" d="M158.3,181.74a19.43,19.43,0,0,0,12.09-9.25,17.62,17.62,0,0,0,1.29-14.63c-1.8-4.6-6-8.43-11.28-8.29a11.74,11.74,0,0,0-10.92,8.61c-1.19,4.8.89,10.45,5.77,11.65a8,8,0,0,0,6.74-1.48,6.45,6.45,0,0,0,2.08-2.92,5.88,5.88,0,0,0-.8-6c-1.13-1.24-3.59-2-5.1-.57-1.31,1.21-1.77,3.22-.48,4.42.21.19.75-.17.67-.48a1.81,1.81,0,0,1,1.56-2.47,2.53,2.53,0,0,1,2.89,1.23c.94,1.9.36,3.77-.76,5.53a3.37,3.37,0,0,1-.66.67c-3.19,2.44-8.08,1-10-2.42a9,9,0,0,1,3-11.73A8.81,8.81,0,0,1,166.67,156a15.32,15.32,0,0,1,.63,16.18c-2.89,5-9.18,8.6-14.32,8.53,0,0,.07,0,0,0m-13.81-3.09"/><path class="cls-5" d="M113.92,194.19c-.06,0,0,0,0,0a11.37,11.37,0,0,1-9.13-18.78,7.38,7.38,0,0,1,9.66-1.92,6.14,6.14,0,0,1,1.64,8.65c-1.72,2.55-5.6,3.69-7.94,1.93a2.2,2.2,0,0,1-.47-.49,4.38,4.38,0,0,1-.14-4.44,2.19,2.19,0,0,1,2.32-1,1.22,1.22,0,0,1,1.06,1.81c-.08.23.32.49.49.34a2.14,2.14,0,0,0-.1-3.26c-1.09-1-3-.44-4,.49a5.07,5.07,0,0,0-1.1,4.84,4.17,4.17,0,0,0,1.44,2.14,6.06,6.06,0,0,0,5.14,1c3.87-1,5.83-5.17,5.2-8.71a8,8,0,0,0-8-6.23c-4.13,0-7.59,2.86-9.27,6.29a13.82,13.82,0,0,0,.11,11.48,13.11,13.11,0,0,0,8.83,6.68m15.14-4"/><path class="cls-5" d="M123.45,58.13c-2.09-3.8-6-5.67-10.12-6v1.41c4.09.38,8,2.46,9.39,6.59a5.73,5.73,0,0,1-3.61,7.3,3.74,3.74,0,0,1-3.5-.71c2-1.08,3.17-2.69,2.53-5a2.68,2.68,0,0,0-4-1.2c-3.8,2.82-.31,8.78,3.93,8.45C123.43,68.57,125.93,62.61,123.45,58.13Z"/><path class="cls-5" d="M87.64,58.27c2-4.69,6.33-7.36,11.09-8.26l.17,1.65c-4.73.95-9,3.84-10.17,8.84a6.73,6.73,0,0,0,5.1,8.09,4.4,4.4,0,0,0,4-1.26c-2.44-1-4-2.76-3.56-5.5.32-1.88,2.92-2.8,4.47-1.89,4.79,2.84,1.43,10.22-3.56,10.35C88.94,70.47,85.3,63.81,87.64,58.27Z"/><path class="cls-5" d="M25.27,128.32c3.23,8.67,12.62,15.14,22.27,12.5A14.29,14.29,0,0,0,57,132a10.46,10.46,0,0,0,.65-6.47,11.32,11.32,0,0,0-7.86-8.61c-3.28-.91-8.28.23-9.32,3.84-.9,3.12.52,6.73,4,7.41.56.11,1.19-1.07.62-1.37a3.88,3.88,0,0,1-.79-6.4,6.14,6.14,0,0,1,6.49-.86A9.91,9.91,0,0,1,56.27,130a11.68,11.68,0,0,1-.39,1.67c-2.77,6.82-12.5,9.7-19.57,6.12-7.77-3.93-11.76-13.57-7.7-21.34"/></g></svg>